<?xml version="1.0" encoding="utf-8"?>
<!-- Generator: Adobe Illustrator 24.3.0, SVG Export Plug-In . SVG Version: 6.00 Build 0)  -->
<svg version="1.1" id="Layer_1" xmlns="http://www.w3.org/2000/svg" xmlns:xlink="http://www.w3.org/1999/xlink" x="0px" y="0px"
	 viewBox="0 0 499.6 77.1" style="enable-background:new 0 0 499.6 77.1;" xml:space="preserve">
<style type="text/css">
	.st0{display:none;}
	.st1{display:inline;fill:#FFFFFF;}
	.st2{fill:#5091CD;}
	.st3{fill:#4D4D4F;}
</style>
<g id="Layer_2_1_" class="st0">
	<rect x="-361" y="-2242" class="st1" width="792" height="612"/>
	<rect x="451" y="-2242" class="st1" width="792" height="612"/>
	<rect x="-361" y="-1610" class="st1" width="792" height="612"/>
	<rect x="451" y="-1610" class="st1" width="792" height="612"/>
	<rect x="-361" y="286" class="st1" width="792" height="612"/>
	<rect x="451" y="286" class="st1" width="792" height="612"/>
	<rect x="-361" y="918" class="st1" width="792" height="612"/>
	<rect x="451" y="918" class="st1" width="792" height="612"/>
	<rect x="-361" y="1554.3" class="st1" width="792" height="612"/>
</g>
<g id="Layer_1_1_">
	<g>
		<path class="st2" d="M87.5,12.5L87.5,12.5C78.4,6.1,65.1,0,47,0v15.9c10.6,0,19,2.6,25.7,6.1c5-1.9,9.1-4.4,12.3-6.8
			C78,22.3,65.8,30.5,47,30.5v0.2v15.7v0.2c10.6,0,19,2.6,25.7,6.1c5-1.9,9.1-4.4,12.3-6.8C78,53,65.8,61.2,47,61.2v15.9
			c18.1,0,31.4-6.1,40.4-12.5l0,0v0V44l0,0v-0.7l0,0v0l0,0c-1.8-1.3-3.8-2.5-5.9-3.8c-2.7,0.9-5.6,1.7-8.8,2.3
			c5.8-2.2,10.7-5,14.7-7.9l0,0v0V13.2l0,0L87.5,12.5L87.5,12.5L87.5,12.5L87.5,12.5z"/>
		<path class="st3" d="M0,12.5L0,12.5v0.7v20.6v0l0,0c4,2.9,8.9,5.7,14.7,7.9c-3.1-0.6-6-1.4-8.8-2.3C3.8,40.7,1.8,42,0,43.3l0,0v0
			V44v20.6v0l0,0C9,71,22.4,77.1,40.5,77.1V61.2c-18.8,0-31-8.2-38-15.3c3.2,2.4,7.3,4.9,12.3,6.8c6.6-3.5,15.1-6.1,25.7-6.1v-0.2
			V30.7v-0.2c-18.8,0-31-8.2-38-15.3c3.2,2.4,7.3,4.9,12.3,6.8c6.6-3.5,15.1-6.1,25.7-6.1V0C22.4,0,9,6.1,0,12.5
			C0,12.5,0,12.5,0,12.5z"/>
		<polygon class="st3" points="232.7,12.6 221.1,12.6 221.1,64.6 230.1,64.6 232.7,64.6 251.4,64.6 251.4,54.5 232.7,54.5 		"/>
		<polygon class="st3" points="276,22.8 292.2,22.8 292.2,64.6 304,64.6 304,22.8 320.2,22.8 320.2,12.6 276,12.6 		"/>
		<polygon class="st3" points="356.7,32.9 338.2,32.9 338.2,12.6 326.6,12.6 326.6,64.6 338.2,64.6 338.2,43 356.7,43 356.7,64.6 
			368.5,64.6 368.5,12.6 356.7,12.6 		"/>
		<rect x="377.7" y="12.6" class="st3" width="11.6" height="52"/>
		<path class="st3" d="M430.1,44.8c0,2.1-0.4,3.9-1.2,5.4c-0.8,1.5-2,2.7-3.5,3.5c-1.5,0.8-3.2,1.2-5,1.2c-1.9,0-3.6-0.4-5.2-1.2
			c-1.5-0.8-2.7-1.9-3.6-3.5s-1.4-3.3-1.4-5.5V12.6h-11.6v31.5c0,4.1,0.9,7.7,2.8,10.9c1.8,3.2,4.4,5.8,7.7,7.6s7.1,2.8,11.4,2.8
			c4.2,0,8-0.9,11.2-2.8c3.2-1.8,5.8-4.4,7.6-7.5s2.7-6.8,2.7-10.9V12.6h-11.7L430.1,44.8L430.1,44.8z"/>
		<polygon class="st3" points="492.4,12.6 475.3,40.3 458.2,12.6 450.9,12.6 450.9,64.6 462.5,64.6 462.5,38.4 471.8,53.5 
			478.8,53.5 488,38.4 488,64.6 499.6,64.6 499.6,12.6 		"/>
		<polygon class="st3" points="257.9,26 257.9,64.6 269.5,64.6 269.5,26 		"/>
		<path class="st3" d="M269.5,12.6h-11.6V26c4.3-0.5,8.2-1.5,11.6-3.2V12.6z"/>
		<polygon class="st3" points="126.8,43 150,43 150,33.2 126.8,33.2 126.8,22.6 152.2,22.6 152.2,12.6 115.2,12.6 115.2,12.8 
			115.2,22.6 115.2,64.6 124.1,64.6 126.8,64.6 152.7,64.6 152.7,54.6 126.8,54.6 		"/>
		<path class="st3" d="M187.5,34.5c-1.8-1.1-3.8-1.7-6-1.8l11.9-13.5v-6.5h-33.6v9.9h17.7l-9.8,11.4v6.5c0.7-0.2,1.6-0.4,2.6-0.5
			s2-0.2,2.9-0.2c2,0,3.7,0.3,5.1,0.9c1.4,0.6,2.6,1.5,3.4,2.6c0.8,1.1,1.2,2.5,1.2,4.2c0,1.6-0.4,3-1.2,4.2s-1.8,2-3.2,2.7
			s-2.9,1-4.6,1c-2,0-3.9-0.4-5.7-1.2c-1.8-0.8-3.2-1.9-4.1-3.3l-7.5,7.5c2.1,2.4,4.6,4.2,7.6,5.4c3,1.2,6.3,1.8,9.9,1.8
			c4.1,0,7.6-0.8,10.7-2.2c3-1.5,5.4-3.6,7.1-6.2c1.7-2.6,2.5-5.7,2.5-9.2c0-3.1-0.6-5.8-1.8-8.1C191.3,37.5,189.7,35.7,187.5,34.5z
			"/>
	</g>
</g>
</svg>
