<?xml version="1.0" encoding="utf-8"?>
<!-- Generator: Adobe Illustrator 26.0.3, SVG Export Plug-In . SVG Version: 6.00 Build 0)  -->
<svg version="1.1" xmlns="http://www.w3.org/2000/svg" xmlns:xlink="http://www.w3.org/1999/xlink" x="0px" y="0px"
	 viewBox="0 0 499.61 77.14" style="enable-background:new 0 0 499.61 77.14;" xml:space="preserve">
<style type="text/css">
	.st0{display:none;}
	.st1{display:inline;fill:#FFFFFF;}
	.st2{fill:#FFFFFF;}
</style>
<g id="Layer_2" class="st0">
	<rect x="-361" y="-2242" class="st1" width="792" height="612"/>
	<rect x="451" y="-2242" class="st1" width="792" height="612"/>
	<rect x="-361" y="-1610" class="st1" width="792" height="612"/>
	<rect x="451" y="-1610" class="st1" width="792" height="612"/>
	<rect x="-361" y="286" class="st1" width="792" height="612"/>
	<rect x="451" y="286" class="st1" width="792" height="612"/>
	<rect x="-361" y="918" class="st1" width="792" height="612"/>
	<rect x="451" y="918" class="st1" width="792" height="612"/>
	<rect x="-361" y="1554.28" class="st1" width="792" height="612"/>
</g>
<g id="Layer_1">
	<g>
		<path class="st2" d="M87.46,12.51c0,0-0.01,0.01-0.01,0.01C78.43,6.11,65.1,0,47,0v15.9c10.57,0,19.04,2.6,25.68,6.13
			c4.98-1.91,9.06-4.39,12.27-6.78C77.96,22.3,65.8,30.52,47,30.52v0.2v15.7v0.2c10.57,0,19.04,2.6,25.68,6.13
			c4.98-1.91,9.06-4.39,12.27-6.78C77.96,53.02,65.8,61.25,47,61.25v15.89c18.11,0,31.44-6.11,40.45-12.53c0,0,0.01,0.01,0.01,0.01
			v-0.02V43.97h0v-0.71h0v-0.02c0,0-0.01,0.01-0.01,0.01c-1.8-1.28-3.77-2.54-5.92-3.75c-2.72,0.91-5.63,1.68-8.75,2.27
			c5.77-2.22,10.65-5.02,14.66-7.88c0,0,0.01,0.01,0.01,0.01v-0.02V13.25h0v-0.71h0V12.51z"/>
		<path class="st2" d="M0,12.51v0.02v0.71v20.64v0.02c0,0,0.01-0.01,0.01-0.01c4.02,2.86,8.89,5.65,14.66,7.88
			c-3.11-0.59-6.03-1.37-8.75-2.27c-2.14,1.21-4.12,2.47-5.92,3.75c0,0-0.01-0.01-0.01-0.01v0.02v0.71v20.64v0.02
			c0,0,0.01-0.01,0.01-0.01c9.01,6.42,22.35,12.53,40.45,12.53V61.25c-18.8,0-30.97-8.22-37.95-15.28c3.2,2.4,7.29,4.87,12.27,6.78
			c6.63-3.53,15.11-6.13,25.68-6.13v-0.2v-15.7v-0.2c-18.8,0-30.97-8.22-37.95-15.28c3.2,2.4,7.29,4.87,12.27,6.78
			c6.63-3.53,15.11-6.13,25.68-6.13V0C22.36,0,9.03,6.11,0.01,12.53C0.01,12.52,0,12.52,0,12.51z"/>
		<polygon class="st2" points="232.72,12.63 221.08,12.63 221.08,64.64 230.07,64.64 232.72,64.64 251.44,64.64 251.44,54.48 
			232.72,54.48 		"/>
		<polygon class="st2" points="275.96,22.8 292.24,22.8 292.24,64.64 303.96,64.64 303.96,22.8 320.16,22.8 320.16,12.63 
			275.96,12.63 		"/>
		<polygon class="st2" points="356.74,32.89 338.21,32.89 338.21,12.63 326.57,12.63 326.57,64.64 338.21,64.64 338.21,42.99 
			356.74,42.99 356.74,64.64 368.45,64.64 368.45,12.63 356.74,12.63 		"/>
		<rect x="377.66" y="12.63" class="st2" width="11.64" height="52.01"/>
		<path class="st2" d="M430.11,44.83c0,2.06-0.42,3.86-1.25,5.38c-0.84,1.52-2,2.68-3.5,3.46c-1.5,0.79-3.18,1.18-5.05,1.18
			c-1.92,0-3.64-0.39-5.16-1.18c-1.52-0.78-2.74-1.94-3.65-3.46c-0.91-1.52-1.36-3.34-1.36-5.45V12.63h-11.64v31.53
			c0,4.08,0.92,7.72,2.76,10.94c1.84,3.22,4.39,5.75,7.66,7.59c3.27,1.84,7.06,2.76,11.38,2.76c4.22,0,7.96-0.92,11.2-2.76
			c3.24-1.84,5.77-4.36,7.59-7.55c1.82-3.19,2.73-6.83,2.73-10.9v-31.6h-11.71V44.83z"/>
		<polygon class="st2" points="492.37,12.63 475.28,40.26 458.18,12.63 450.94,12.63 450.94,64.64 462.51,64.64 462.51,38.38 
			471.78,53.45 478.77,53.45 488.04,38.38 488.04,64.64 499.61,64.64 499.61,12.63 		"/>
		<polygon class="st2" points="257.91,26.02 257.91,64.64 269.55,64.64 269.55,26.02 257.91,26.02 		"/>
		<path class="st2" d="M269.55,12.63h-11.64v13.39c4.27-0.53,8.21-1.52,11.64-3.22V12.63z"/>
		<polygon class="st2" points="126.8,42.98 150.01,42.98 150.01,33.19 126.8,33.19 126.8,22.65 152.22,22.65 152.22,12.63 
			115.17,12.63 115.17,12.81 115.17,22.65 115.17,64.64 124.08,64.64 126.8,64.64 152.66,64.64 152.66,54.62 126.8,54.62 		"/>
		<path class="st2" d="M187.52,34.47c-1.81-1.06-3.82-1.65-6.01-1.81l11.94-13.55v-6.48h-33.58v9.87h17.7l-9.82,11.41v6.55
			c0.69-0.25,1.55-0.43,2.58-0.55c1.03-0.12,2.01-0.18,2.95-0.18c1.96,0,3.67,0.31,5.12,0.92c1.45,0.61,2.56,1.49,3.35,2.61
			c0.78,1.13,1.18,2.53,1.18,4.2c0,1.62-0.39,3.01-1.18,4.16c-0.79,1.15-1.84,2.05-3.17,2.69c-1.33,0.64-2.87,0.96-4.64,0.96
			c-1.96,0-3.85-0.42-5.67-1.25c-1.82-0.83-3.19-1.94-4.12-3.31l-7.51,7.51c2.06,2.36,4.59,4.15,7.59,5.38
			c2.99,1.23,6.31,1.84,9.94,1.84c4.07,0,7.63-0.75,10.68-2.25c3.04-1.5,5.4-3.56,7.07-6.19c1.67-2.63,2.5-5.68,2.5-9.17
			c0-3.09-0.61-5.78-1.84-8.06C191.34,37.49,189.66,35.72,187.52,34.47z"/>
	</g>
</g>
</svg>
